<svg xmlns="http://www.w3.org/2000/svg" width="61" height="6" viewBox="152 80.998 61 6"><path d="M162.166 86.998c3.263 0 4.998-1.213 6.392-2.189 1.177-.822 1.954-1.366 3.774-1.366s2.598.544 3.774 1.366c1.394.976 3.13 2.189 6.393 2.189s4.998-1.213 6.392-2.189c1.176-.822 1.953-1.366 3.774-1.366 1.82 0 2.598.544 3.774 1.367 1.395.975 3.13 2.188 6.393 2.188s4.999-1.213 6.393-2.189c1.177-.822 1.954-1.366 3.775-1.366v-2.445c-3.263 0-4.999 1.214-6.393 2.19-1.177.822-1.954 1.366-3.775 1.366-1.82 0-2.598-.544-3.774-1.367-1.395-.975-3.13-2.19-6.393-2.19s-4.999 1.215-6.393 2.19c-1.176.823-1.953 1.367-3.773 1.367s-2.598-.544-3.774-1.367c-1.395-.975-3.13-2.19-6.393-2.19s-4.998 1.215-6.392 2.19c-1.177.823-1.954 1.367-3.774 1.367s-2.597-.544-3.774-1.367c-1.394-.975-3.13-2.19-6.392-2.19v2.446c1.82 0 2.597.544 3.774 1.366 1.394.976 3.129 2.189 6.392 2.189Z" fill="#000" fill-rule="evenodd" data-name="Border"/></svg>