<svg xmlns="http://www.w3.org/2000/svg" width="34.998" height="47" viewBox="92.001 0 34.998 47"><path d="M111.881.102a25.627 25.627 0 0 0-2.296-.101h-.086a1.081 1.081 0 0 0-.028 0h-.029a3.384 3.384 0 0 1-.029 0C103.44 0 98.344 2.01 95.25 5.43a12.326 12.326 0 0 0-2.19 3.382c-3.145 7.268.776 17.34 11.038 28.372a1.432 1.432 0 0 0 .235.477l1.646 3.856h-.377a.781.781 0 0 0-.78.783c0 .433.35.784.78.784v3.133c0 .433.35.784.78.784h6.238c.43 0 .78-.35.78-.784v-3.133a.782.782 0 0 0 .78-.784.782.782 0 0 0-.782-.783h-.376l1.645-3.856c.11-.147.187-.306.236-.477a70.143 70.143 0 0 0 5.524-6.674c4.337-6.008 6.572-11.582 6.572-16.384a13.261 13.261 0 0 0-1.058-5.314c-2.117-4.891-7.391-8.11-14.059-8.71ZM94.489 9.436c1.702-3.934 5.772-6.656 11.033-7.55a13.782 13.782 0 0 0-3.872 3.678 12.86 12.86 0 0 0-1.541 2.978c-3.016 8.288 2.167 19.327 5.18 24.935a108.297 108.297 0 0 0 .792 1.446c-.53.167-.99.38-1.338.644-9.435-10.327-13.087-19.585-10.254-26.13Zm19.767 26.13c-.348-.263-.808-.476-1.339-.644 2.213-3.973 6.884-12.783 6.884-20.804a16.256 16.256 0 0 0-.911-5.577 13.119 13.119 0 0 0-5.141-6.476 16.072 16.072 0 0 0-.272-.18 18.172 18.172 0 0 1 5.55 1.85c2.529 1.357 4.446 3.305 5.483 5.701 2.831 6.545-.82 15.804-10.254 26.13Zm-.375-31.447a15.43 15.43 0 0 0-3.603-2.173V34.49c.353.02.7.05 1.039.094 2.49-4.444 9.267-16.82 6.107-25.503a11.374 11.374 0 0 0-3.543-4.96Zm-5.162-2.173v32.521h-1.104c-2.544-4.544-9.173-16.782-6.042-25.388a11.625 11.625 0 0 1 4.603-5.747 16.428 16.428 0 0 1 2.543-1.386Zm.78 35.654c-2.155 0-3.462-.493-3.829-.782.358-.284 1.61-.76 3.672-.783a13.958 13.958 0 0 1 .157 0c1.995 0 3.263.422 3.73.715a1.082 1.082 0 0 1 .098.068c-.367.29-1.674.782-3.828.782Zm1.825 3.917h-3.651l-1.142-2.678c.878.218 1.9.325 2.92.328a15.008 15.008 0 0 0 .048 0 15.135 15.135 0 0 0 .028 0c1.028-.002 2.057-.108 2.94-.328l-1.143 2.678Zm.514 3.917h-4.679v-2.35h4.679v2.35Z" fill="rgba(161, 161, 161, 1)" fill-rule="evenodd" data-name="Icon"/></svg>