<svg xmlns="http://www.w3.org/2000/svg" width="48" height="47.001" viewBox="87 0 48 47.001"><path d="M134.2 9.725h-2.4v-.811a.9.9 0 0 0-.085-.394.729.729 0 0 0-.564-.405.986.986 0 0 0-.151-.01c-.48 0-.8.323-.8.809v.81H127v-.81a.9.9 0 0 0-.085-.394.729.729 0 0 0-.564-.405.986.986 0 0 0-.15-.01c-.48 0-.8.323-.8.809v.81h-3.2V2.432a.902.902 0 0 0-.085-.395c-.126-.259-.382-.415-.716-.415h-7.2V.81a.902.902 0 0 0-.084-.395C113.99.156 113.734 0 113.4 0a.867.867 0 0 0-.398.09.732.732 0 0 0-.385.534 1.007 1.007 0 0 0-.017.187v.81h-3.2V.81a.902.902 0 0 0-.084-.395C109.19.156 108.934 0 108.6 0c-.48 0-.8.324-.8.81v.81h-7.2c-.48 0-.8.325-.8.811v7.294h-3.2v-.811a.9.9 0 0 0-.085-.394.729.729 0 0 0-.564-.405.986.986 0 0 0-.15-.01c-.48 0-.8.323-.8.809v.81h-3.2v-.81a.9.9 0 0 0-.085-.394.729.729 0 0 0-.565-.405.986.986 0 0 0-.15-.01c-.48 0-.8.323-.8.809v.81H87.8c-.48 0-.8.325-.8.81V46.19a.902.902 0 0 0 .085.395c.125.26.381.416.715.416H134.2a.867.867 0 0 0 .398-.09.732.732 0 0 0 .385-.534 1.007 1.007 0 0 0 .017-.187V10.535a.9.9 0 0 0-.085-.395c-.125-.259-.381-.415-.715-.415Zm-32.8 29.982V3.242h19.2V45.38h-2.4v-7.293a.902.902 0 0 0-.085-.395c-.125-.26-.381-.416-.715-.416h-12.8a.867.867 0 0 0-.398.09.732.732 0 0 0-.385.534 1.007 1.007 0 0 0-.017.187v7.293h-2.4v-5.673Zm32-28.362v27.552h-11.2V11.345h11.2Zm-44.8 0h11.2v27.552H88.6V11.345Zm44.8 34.035h-11.2v-4.863h11.2v4.863Zm-44.8-4.862h11.2v4.862H88.6v-4.862Zm16.8-1.621h4.8v6.483h-4.8v-6.483Zm6.4 6.483v-6.483h4.8v6.483h-4.8ZM127 17.828h1.6c.88 0 1.6-.73 1.6-1.62v-1.622c0-.89-.72-1.62-1.6-1.62H127c-.88 0-1.6.73-1.6 1.62v1.621c0 .892.72 1.62 1.6 1.62Zm0 6.483h1.6c.88 0 1.6-.73 1.6-1.62v-1.622c0-.89-.72-1.62-1.6-1.62H127c-.88 0-1.6.73-1.6 1.62v1.621c0 .892.72 1.62 1.6 1.62Zm0 6.482h1.6c.88 0 1.6-.729 1.6-1.62v-1.621c0-.891-.72-1.62-1.6-1.62H127c-.88 0-1.6.729-1.6 1.62v1.621c0 .891.72 1.62 1.6 1.62ZM95 19.448h-1.6c-.88 0-1.6.73-1.6 1.62v1.622c0 .892.72 1.62 1.6 1.62H95c.88 0 1.6-.728 1.6-1.62V21.07c0-.89-.72-1.62-1.6-1.62Zm0 6.483h-1.6c-.88 0-1.6.73-1.6 1.621v1.621c0 .891.72 1.62 1.6 1.62H95c.88 0 1.6-.729 1.6-1.62v-1.621c0-.891-.72-1.62-1.6-1.62Zm32 11.345h1.6c.88 0 1.6-.729 1.6-1.62v-1.62c0-.892-.72-1.622-1.6-1.622H127c-.88 0-1.6.73-1.6 1.621v1.62c0 .892.72 1.621 1.6 1.621Zm-20.8-25.12h1.6c.88 0 1.6-.73 1.6-1.621V8.914c0-.89-.72-1.62-1.6-1.62h-1.6c-.88 0-1.6.73-1.6 1.62v1.62c0 .893.72 1.622 1.6 1.622Zm8 0h1.6c.88 0 1.6-.73 1.6-1.621V8.914c0-.89-.72-1.62-1.6-1.62h-1.6c-.88 0-1.6.73-1.6 1.62v1.62c0 .893.72 1.622 1.6 1.622Zm-8 6.483h1.6c.88 0 1.6-.73 1.6-1.622v-1.62c0-.89-.72-1.62-1.6-1.62h-1.6c-.88 0-1.6.73-1.6 1.62v1.62c0 .892.72 1.622 1.6 1.622Zm8 0h1.6c.88 0 1.6-.73 1.6-1.622v-1.62c0-.89-.72-1.62-1.6-1.62h-1.6c-.88 0-1.6.73-1.6 1.62v1.62c0 .892.72 1.622 1.6 1.622Zm-8 6.482h1.6c.88 0 1.6-.729 1.6-1.62V21.88c0-.891-.72-1.62-1.6-1.62h-1.6c-.88 0-1.6.729-1.6 1.62v1.62c0 .892.72 1.621 1.6 1.621Zm8 0h1.6c.88 0 1.6-.729 1.6-1.62V21.88c0-.891-.72-1.62-1.6-1.62h-1.6c-.88 0-1.6.729-1.6 1.62v1.62c0 .892.72 1.621 1.6 1.621Zm-8 6.483h1.6c.88 0 1.6-.729 1.6-1.621v-1.62c0-.891-.72-1.621-1.6-1.621h-1.6c-.88 0-1.6.73-1.6 1.62v1.62c0 .893.72 1.622 1.6 1.622Zm8 0h1.6c.88 0 1.6-.729 1.6-1.621v-1.62c0-.891-.72-1.621-1.6-1.621h-1.6c-.88 0-1.6.73-1.6 1.62v1.62c0 .893.72 1.622 1.6 1.622Zm-19.2.81h-1.6c-.88 0-1.6.73-1.6 1.621v1.62c0 .892.72 1.621 1.6 1.621H95c.88 0 1.6-.729 1.6-1.62v-1.62a1.616 1.616 0 0 0-1.6-1.622Zm0-19.448h-1.6c-.88 0-1.6.73-1.6 1.62v1.621c0 .892.72 1.62 1.6 1.62H95c.88 0 1.6-.728 1.6-1.62v-1.62a1.616 1.616 0 0 0-1.6-1.621Zm32 1.62h1.6v1.621H127v-1.62Zm0 6.483h1.6v1.621H127V21.07Zm0 6.483h1.6v1.621H127v-1.621ZM95 16.207h-1.6v-1.62H95v1.62Zm0 6.483h-1.6V21.07H95v1.621Zm0 6.483h-1.6v-1.621H95v1.621Zm11.2-20.259h1.6v1.62h-1.6v-1.62Zm8 0h1.6v1.62h-1.6v-1.62Zm-8 6.483h1.6v1.62h-1.6v-1.62Zm8 0h1.6v1.62h-1.6v-1.62Zm-8 6.483h1.6v1.62h-1.6v-1.62Zm8 0h1.6v1.62h-1.6v-1.62Zm-8 6.482h1.6v1.62h-1.6v-1.62Zm8 0h1.6v1.62h-1.6v-1.62Zm12.8 5.673h1.6v1.62H127v-1.62Zm-32 1.62h-1.6v-1.62H95v1.62Z" fill="rgba(161, 161, 161, 1)" fill-rule="evenodd" data-name="Icon"/></svg>