<svg xmlns="http://www.w3.org/2000/svg" width="51" height="49.001" viewBox="86 0.001 51 49.001"><path d="M133.915 20.346H123.81a.925.925 0 0 0-.927.925.925.925 0 0 0 .927.924h8.438l2.687 24.958H88.102l3.155-24.958h8.452a.925.925 0 0 0 .927-.924.925.925 0 0 0-.927-.925H89.622L86 49.002h51l-3.085-28.656Zm-23.366 14.839a5.29 5.29 0 0 0 .16-.09 24.623 24.623 0 0 1-.676-.75c-2.206-2.552-6.868-8.872-8.938-18.658a22.402 22.402 0 0 1-.178-.941 19.743 19.743 0 0 1-.28-3.26 16.832 16.832 0 0 1 .14-2.194c.8-6.078 4.586-9.29 10.95-9.29a15.477 15.477 0 0 1 3.135.3c4.479.926 7.16 3.987 7.816 8.99.137 1.035.175 2.112.113 3.22a20.946 20.946 0 0 1-.43 3.175c-2.03 9.597-6.555 15.863-8.811 18.51a24.808 24.808 0 0 1-.856.955c-.004.005-.01.008-.014.012a.085.085 0 0 0-.01.009.931.931 0 0 1 .01.69.901.901 0 0 1-.438.482 10.31 10.31 0 0 0-.94.537 10.182 10.182 0 0 0-.508.35.952.952 0 0 1-.051.036.928.928 0 0 1-.497.143.94.94 0 0 1-.211-.024.922.922 0 0 1-.538-.353.942.942 0 0 1-.032-.048.923.923 0 0 1-.112-.748.923.923 0 0 1 .344-.496c.195-.142.395-.28.599-.411.08-.052.166-.1.253-.146Zm-7-29.01a11.216 11.216 0 0 0-.934 3.358 15.006 15.006 0 0 0-.124 1.953c0 .344.01.693.033 1.045a19.223 19.223 0 0 0 .385 2.776 42.75 42.75 0 0 0 1.215 4.51c2.415 7.341 6.176 12.043 7.605 13.65 1.415-1.592 5.124-6.224 7.541-13.46a42.758 42.758 0 0 0 1.278-4.7c.278-1.318.418-2.597.418-3.821a14.947 14.947 0 0 0-.125-1.953c-.52-3.957-2.388-6.358-5.683-7.266a12.92 12.92 0 0 0-3.43-.417 13.78 13.78 0 0 0-2.773.26c-2.576.53-4.368 1.876-5.406 4.065Zm8.18 11.317a6.807 6.807 0 0 0 6.81-6.79c0-3.744-3.055-6.79-6.81-6.79a6.808 6.808 0 0 0-6.81 6.79 6.807 6.807 0 0 0 6.81 6.79Zm4.955-6.789a4.955 4.955 0 0 0-4.955-4.942 4.955 4.955 0 0 0-4.956 4.942 4.954 4.954 0 0 0 4.956 4.941 4.954 4.954 0 0 0 4.955-4.94Zm-1.55 22.73a.924.924 0 0 0-.734.903.934.934 0 0 0 .02.194.925.925 0 0 0 .906.73.969.969 0 0 0 .13-.008.991.991 0 0 0 .065-.01 20.132 20.132 0 0 1 1.068-.195 24.38 24.38 0 0 1 .68-.095.924.924 0 0 0 .813-.915.93.93 0 0 0-.007-.117.918.918 0 0 0-1.034-.802 22.784 22.784 0 0 0-1.438.22 19.895 19.895 0 0 0-.47.094Zm12.3-8.652a5.283 5.283 0 0 0-.695-.046l-.115.001a5.608 5.608 0 0 0-1.401.212.922.922 0 0 0-.657 1.068.936.936 0 0 0 .017.072.926.926 0 0 0 .891.674.9.9 0 0 0 .252-.036 3.636 3.636 0 0 1 1.46-.112.998.998 0 0 0 .123.007.919.919 0 0 0 .92-.799.936.936 0 0 0 .009-.125.926.926 0 0 0-.803-.916ZM95.869 36.878a.959.959 0 0 0 .031-.016 2.268 2.268 0 0 1 .845-.268c.06-.007.123-.01.184-.01a1.478 1.478 0 0 1 .192.012.985.985 0 0 0 .127.008.915.915 0 0 0 .913-.803.932.932 0 0 0 .008-.122.924.924 0 0 0-.805-.915 3.364 3.364 0 0 0-.443-.029 3.365 3.365 0 0 0-.383.022 4.12 4.12 0 0 0-1.526.481.923.923 0 0 0-.433.513.916.916 0 0 0 .063.74.921.921 0 0 0 .515.433.934.934 0 0 0 .3.05.93.93 0 0 0 .412-.096Zm-.605 7.344a4.792 4.792 0 0 0 .404.085 4.47 4.47 0 0 0 .203.03c.237.028.474.043.713.043a6.59 6.59 0 0 0 .46-.016 7.06 7.06 0 0 0 .411-.041.925.925 0 0 0 .811-.915.927.927 0 0 0-.007-.118.926.926 0 0 0-1.036-.801 5.03 5.03 0 0 1-.636.042 4.066 4.066 0 0 1-.491-.029 2.974 2.974 0 0 1-.365-.069.939.939 0 0 0-.036-.009.92.92 0 0 0-.201-.022.927.927 0 0 0-.894.692.943.943 0 0 0-.01.04.927.927 0 0 0-.02.192.926.926 0 0 0 .694.896Zm5.87-2.928a25.768 25.768 0 0 0 1.072-.472.926.926 0 0 1 .635-.056.922.922 0 0 1 .598.501.944.944 0 0 1 .004.01.919.919 0 0 1 .036.677.922.922 0 0 1-.485.543c-.582.271-1.176.525-1.764.751a.902.902 0 0 1-.22.055.95.95 0 0 1-.114.007.926.926 0 0 1-.865-.592.928.928 0 0 1-.053-.203.923.923 0 0 1 .583-.992 26.084 26.084 0 0 0 .573-.229Zm26.322-9.328c-.313.219-.72.378-1.248.486a.924.924 0 0 0-.74.904.925.925 0 0 0 .02.188c.091.438.477.738.908.738a.97.97 0 0 0 .188-.02c.766-.157 1.39-.408 1.913-.767a4.077 4.077 0 0 0 .03-.02l.124-.091a.924.924 0 0 0 .213-1.25.936.936 0 0 0-.033-.045.924.924 0 0 0-.516-.339.932.932 0 0 0-.783.159 43.51 43.51 0 0 1-.002.002l-.07.051a76.2 76.2 0 0 1-.003.003Zm-22.124 7.118a24.696 24.696 0 0 0 1.464-1.023.926.926 0 0 1 .717-.172.932.932 0 0 1 .582.353.922.922 0 0 1 .158.783.92.92 0 0 1-.34.512 26.991 26.991 0 0 1-1.571 1.098.956.956 0 0 1-.042.026.927.927 0 0 1-.462.123.938.938 0 0 1-.211-.024.922.922 0 0 1-.568-.396.94.94 0 0 1-.025-.04.92.92 0 0 1-.088-.721.923.923 0 0 1 .386-.519Zm14.596-5.276c.02.497.432.885.925.885a1.583 1.583 0 0 0 .02 0 .53.53 0 0 0 .021 0l1.855-.078a.925.925 0 0 0 .884-.921.932.932 0 0 0 0-.044.957.957 0 0 0-.712-.856.826.826 0 0 0-.256-.026l-1.85.077a.924.924 0 0 0-.887.963Zm-25.681 5.143a.924.924 0 0 0-.685-.89.924.924 0 0 0-1.137.65 6.205 6.205 0 0 0-.154.741 6.083 6.083 0 0 0-.054.557 7.473 7.473 0 0 0-.008.327 5.841 5.841 0 0 0 .027.542.926.926 0 0 0 .921.83c.031 0 .062-.001.096-.005a.927.927 0 0 0 .833-.92.936.936 0 0 0-.004-.093 3.686 3.686 0 0 1-.019-.361 3.53 3.53 0 0 1 0-.057 5.157 5.157 0 0 1 .007-.172 4.229 4.229 0 0 1 .058-.517 4.366 4.366 0 0 1 .086-.39.922.922 0 0 0 .033-.242Zm35.034-9.59a.928.928 0 0 0-.028.115.915.915 0 0 0-.014.157.924.924 0 0 0 .653.883.905.905 0 0 0 .257.04.982.982 0 0 0 .017 0 .924.924 0 0 0 .885-.65 3.95 3.95 0 0 0 .158-.763 3.82 3.82 0 0 0 .012-.127 3.782 3.782 0 0 0 .007-.232 3.53 3.53 0 0 0 0-.065 3.68 3.68 0 0 0-.236-1.221.928.928 0 0 0-.87-.603.92.92 0 0 0-.114.007.923.923 0 0 0-.207.05.922.922 0 0 0-.545.54.918.918 0 0 0-.052.451.921.921 0 0 0 .05.197 2.008 2.008 0 0 1 .066.215 1.777 1.777 0 0 1 .054.428l-.003.108a2.027 2.027 0 0 1-.064.378 2.399 2.399 0 0 1-.026.091Z" fill="rgba(161, 161, 161, 1)" fill-rule="evenodd" data-name="Icon"/></svg>