<svg xmlns="http://www.w3.org/2000/svg" width="46" height="46" viewBox="88 0 46 46"><path d="M110.999 0A23.026 23.026 0 0 0 88 23a23.025 23.025 0 0 0 22.999 23A23.027 23.027 0 0 0 134 23 23.027 23.027 0 0 0 111 0ZM89.77 23a21.252 21.252 0 0 0 21.228 21.228 21.254 21.254 0 0 0 21.23-21.229c0-11.705-9.524-21.229-21.23-21.229A21.253 21.253 0 0 0 89.77 23Zm36.271 2.341c-1.458 7.126-7.804 12.299-15.09 12.299a15.343 15.343 0 0 1-14.986-11.83 1.327 1.327 0 0 1 .985-1.599 1.316 1.316 0 0 1 .315-.038 1.326 1.326 0 0 1 1.285 1.022 12.7 12.7 0 0 0 12.402 9.788 12.783 12.783 0 0 0 12.487-10.175 1.332 1.332 0 0 1 1.303-1.062 1.33 1.33 0 0 1 .265.027 1.327 1.327 0 0 1 1.062 1.3 1.34 1.34 0 0 1-.028.268Zm-9.703-11.93a2.658 2.658 0 0 0-2.658 2.658 2.66 2.66 0 0 0 2.658 2.658 2.659 2.659 0 0 0 0-5.316Zm-11.069 0a2.658 2.658 0 0 0-2.658 2.658 2.66 2.66 0 0 0 2.658 2.658 2.66 2.66 0 0 0 2.659-2.658 2.658 2.658 0 0 0-2.659-2.658Z" fill="rgba(161, 161, 161, 1)" fill-rule="evenodd" data-name="Icon"/></svg>